<svg xmlns="http://www.w3.org/2000/svg" viewBox="0 0 1000 1000">
  <defs>
    <pattern id="wood" patternUnits="userSpaceOnUse" width="52" height="1000">
      <rect width="52" height="1000" fill="#ddb882" />
      <rect x="0" width="18" height="1000" fill="#d5ad76" />
      <rect x="27" width="9" height="1000" fill="#e6c598" />
      <rect x="43" width="4" height="1000" fill="#cf9f64" />
    </pattern>
    <linearGradient id="vignette" x1="0" y1="0" x2="0" y2="1">
      <stop offset="0%" stop-color="#fff7e8" stop-opacity="0.28" />
      <stop offset="52%" stop-color="#fff7e8" stop-opacity="0" />
      <stop offset="100%" stop-color="#8e6231" stop-opacity="0.2" />
    </linearGradient>
    <style>
      .line-major { fill: none; stroke: #fff8ed; stroke-width: 4; stroke-linecap: round; stroke-linejoin: round; }
      .line-minor { fill: none; stroke: #fff8ed; stroke-width: 2.6; stroke-linecap: round; stroke-linejoin: round; }
    </style>
  </defs>

  <rect width="1000" height="1000" fill="url(#wood)" />
  <rect width="1000" height="1000" fill="url(#vignette)" />

  <rect x="74" y="74" width="852" height="852" class="line-major" />

  <g>
    <rect x="378.5" y="74" width="243" height="206" class="line-major" />
    <rect x="378.5" y="74" width="243" height="206" fill="#cb995d" opacity="0.12" />
    <line x1="427" y1="127" x2="573" y2="127" class="line-major" />
    <rect x="477" y="127" width="46" height="18" class="line-minor" />
    <circle cx="500" cy="155" r="9" class="line-major" />
    <path d="M 440 194 A 60 60 0 0 0 560 194" class="line-minor" />
    <path d="M 378.5 280 A 121.5 121.5 0 0 0 621.5 280" class="line-minor" />
    <path d="M 170 304 A 360 360 0 0 0 830 304" class="line-major" />
    <line x1="170" y1="74" x2="170" y2="304" class="line-major" />
    <line x1="830" y1="74" x2="830" y2="304" class="line-major" />
    <line x1="365" y1="123" x2="378.5" y2="123" class="line-minor" />
    <line x1="365" y1="166" x2="378.5" y2="166" class="line-minor" />
    <line x1="365" y1="210" x2="378.5" y2="210" class="line-minor" />
    <line x1="621.5" y1="123" x2="635" y2="123" class="line-minor" />
    <line x1="621.5" y1="166" x2="635" y2="166" class="line-minor" />
    <line x1="621.5" y1="210" x2="635" y2="210" class="line-minor" />
  </g>

  <path d="M 415 926 A 85 85 0 0 1 585 926" class="line-minor" />
</svg>

